<?xml version="1.0" encoding="UTF-8"?>
<svg id="Layer_1" xmlns="http://www.w3.org/2000/svg" version="1.1" viewBox="0 0 1177.9 322.6">
  <!-- Generator: Adobe Illustrator 29.6.1, SVG Export Plug-In . SVG Version: 2.1.1 Build 9)  -->
  <defs>
    <style>
      .st0 {
        fill: #cc0001;
      }
    </style>
  </defs>
  <g>
    <path class="st0" d="M224.1,114.6h-117.6c29.1-36,88.6-36.3,117.6,0Z"/>
    <path class="st0" d="M242.3,157.4h-69.4c-1.8-8.7-1.5-17.7-1.5-26.6h63.2c4.5,7.9,7,17.5,7.6,26.6Z"/>
    <path class="st0" d="M161.9,176c-.9,1.3-13.6,40.1-29.6,53.5s-4.5,3.4-4,4.1,3.7,1,3.7,1h64.7s3.1-.3,3.7-1-2.1-2.6-4-4.1c-15.9-13.5-28.7-52.3-29.6-53.5-1.6-2.5-3.3-2.5-5,0Z"/>
    <path class="st0" d="M157.1,130.8c0,8.9.3,17.8-1,26.6h-67.9c.9-9.2,3.1-18.5,7.6-26.6h61.3Z"/>
    <path class="st0" d="M242.3,174.1c-2,13.5-6.9,26.7-15.6,37.3-20.6-4.1-39-18.4-47.9-37.3h63.5Z"/>
    <path class="st0" d="M150.7,174.1c-6.7,15.6-20.8,28.5-36.7,34.5-1.9.7-8.4,3-9.9,2.9s-4.3-5.5-5-6.7c-5.5-9-9.5-20.1-10.4-30.7h62Z"/>
  </g>
  <g>
    <path class="st0" d="M1060.3,130.5v59.7c0,13.2-10.2,21.8-25.9,21.8s-25.7-8.3-25.7-20.7v-60.8h-29.2v57.2c0,31,15.9,47.4,46,47.4s24.5-5.6,32.1-14.9l3-3.7v18.4h29v-104.5h-29.4Z"/>
    <path class="st0" d="M921.3,169.9l-12.1-1c-7.1-.6-14.3-2.1-14.3-9s2.5-10.6,19.4-10.6,11.6,1.3,14.3,3.9c2.7,2.6,2.9,6,2.9,9.1h30c.4-8.8-2.1-16.2-7.6-22-8-8.4-22-13-39.6-13-28.8,0-47.3,12.8-47.3,32.7s14.6,28.2,40.2,30.6l12.1,1c12.8,1,18,3.9,18,9.8s-6,11.9-22.9,11.9-22-8.9-22.2-13.8h-29.1c-.2,8.7,2.6,16.2,8.3,22.1,8.8,9,23.6,13.8,43,13.8,29.5,0,51-14.3,51-33.9s-16.1-28.8-44-31.4Z"/>
    <path class="st0" d="M848.9,151.5v-21h-23.3v-43.2h-29.4v43.2h-19.2v21h19.2v45.3c0,25.7,14.9,38.3,45.4,38.3h6.1v-23.4h-7.8c-11.8,0-14.2-6.9-14.2-12.7v-30.5c0-9-11.2-11.9-16.7-11.9h-1.7v-5.1h41.7Z"/>
    <path class="st0" d="M713,130.5h-35.5v22.3l42.2.2c10.3,0,17.4,1.9,18.7,11.3l.3,1.9h-23.8c-32,0-50.4,12.5-50.4,34.4s16.9,34.6,45.2,34.6,22.2-2.6,29.4-8l2.7-2v9.9h25.1v-66.1c0-27.2-15.7-38.4-54-38.4ZM738.7,193.6c0,6.2-2.4,20.7-24.6,20.7s-20.7-5-20.7-13.8,7.7-14.2,20.7-14.2h24.6v7.3Z"/>
    <path class="st0" d="M606.3,127.4h-.9c-15.3,0-27.4,5.4-34.9,15.7l-1.4,1.9-1.4-1.9c-7.3-10.4-18.9-15.7-34.5-15.7h-.7c-9.9,0-25.1,8.7-29.2,15.2l-3.1,4.9v-16.9h-28.6v104.6h29v-61.8c0-14.1,9.7-22.2,26.5-22.2s24.8,8.7,24.8,21.6l-.2,62.5h25.5v-61.8c0-13.9,8.6-22.2,22.9-22.2s20.7,7.9,20.7,21.1v62.9h29.4v-59c0-31.5-15.7-48.9-44.1-48.9Z"/>
    <path class="st0" d="M398,87.3h-40.4l-57,147.8h29.4l16.2-41h63.9l16.4,41h30.3l-58.7-147.8ZM355.4,168.9l22.1-58.3,22.6,58.3h-44.7Z"/>
  </g>
</svg>