<?xml version="1.0" encoding="utf-8"?>
<!-- Generator: Adobe Illustrator 26.3.1, SVG Export Plug-In . SVG Version: 6.00 Build 0)  -->
<svg version="1.1" id="Layer_1" xmlns="http://www.w3.org/2000/svg" xmlns:xlink="http://www.w3.org/1999/xlink" x="0px" y="0px"
	 viewBox="0 0 154.1 154.1" style="enable-background:new 0 0 154.1 154.1;" xml:space="preserve">
<style type="text/css">
	.st0{fill:#CC0001;}
</style>
<path class="st0" d="M135.9,27.1H18.3C47.4-8.9,106.9-9.2,135.9,27.1z"/>
<path class="st0" d="M154.1,69.9H84.7c-1.8-8.7-1.5-17.7-1.5-26.6h63.2c4.5,7.9,7,17.5,7.6,26.6H154.1z"/>
<path class="st0" d="M73.7,88.6c-0.9,1.3-13.6,40.1-29.6,53.5s-4.5,3.4-4,4.1s3.7,1,3.7,1h64.7c0,0,3.1-0.3,3.7-1s-2.1-2.6-4-4.1
	c-15.9-13.5-28.7-52.3-29.6-53.5c-1.6-2.5-3.3-2.5-5,0H73.7z"/>
<path class="st0" d="M68.9,43.4c0,8.9,0.3,17.8-1,26.6H0c0.9-9.2,3.1-18.5,7.6-26.6C7.6,43.4,68.9,43.4,68.9,43.4z"/>
<path class="st0" d="M154.1,86.7c-2,13.5-6.9,26.7-15.6,37.3c-20.6-4.1-39-18.4-47.9-37.3H154.1z"/>
<path class="st0" d="M62.5,86.7c-6.7,15.6-20.8,28.5-36.7,34.5c-1.9,0.7-8.4,3-9.9,2.9s-4.3-5.5-5-6.7c-5.5-9-9.5-20.1-10.4-30.7
	H62.5z"/>
</svg>
